# xmcd
#
# Track frame offsets: 
#        150
#        12506
#        27355
#        40459
#        54436
#        67285
#        87706
#        100306
#        120039
#        132206
#        145257
#        159595
#        175429
#        190824
#
# Disc length: 2812 seconds
#
# Revision: 0
# Processed by: cddbd v1.5.2PL0 Copyright (c) Steve Scherf et al.
# Submitted via: ExactAudioCopyFreeDBPlugin 1.0
#
DISCID=c80afa0e
DTITLE=grupe Karcema - Mariu vejas
DYEAR=2008
DGENRE=Country
TTITLE0=Tik su tavim
TTITLE1=Neklausk tu manes
TTITLE2=Simtas ir viena naktis
TTITLE3=Digiligilialia
TTITLE4=Esu zvejys
TTITLE5=Masalu valsas
TTITLE6=Nesustok kely
TTITLE7=Tu namuose
TTITLE8=Galaliu geguzine
TTITLE9=Geriau buti lietuviu
TTITLE10=Baltos kaledos
TTITLE11=Merguzele
TTITLE12=Merguzele (karaoke)
TTITLE13=Tu namuose (karaoke)
EXTD=
EXTT0=
EXTT1=
EXTT2=
EXTT3=
EXTT4=
EXTT5=
EXTT6=
EXTT7=
EXTT8=
EXTT9=
EXTT10=
EXTT11=
EXTT12=
EXTT13=
PLAYORDER=
